<svg width="25" height="25" viewBox="0 0 25 25" fill="none" xmlns="http://www.w3.org/2000/svg">
<path d="M12.5044 6.08008C8.95963 6.08008 6.08984 8.953 6.08984 12.4947C6.08984 16.0395 8.96276 18.9092 12.5044 18.9092C16.0492 18.9092 18.919 16.0363 18.919 12.4947C18.919 8.94987 16.0461 6.08008 12.5044 6.08008V6.08008ZM12.5044 16.6582C10.2034 16.6582 8.34089 14.7947 8.34089 12.4947C8.34089 10.1947 10.2044 8.33112 12.5044 8.33112C14.8044 8.33112 16.668 10.1947 16.668 12.4947C16.669 14.7947 14.8055 16.6582 12.5044 16.6582V16.6582Z" fill="#544334"/>
<path d="M17.6544 0.0785278C15.3544 -0.0287639 9.65753 -0.0235556 7.35544 0.0785278C5.33253 0.173319 3.54815 0.661861 2.10961 2.1004C-0.294555 4.50457 0.0127367 7.74415 0.0127367 12.4952C0.0127367 17.3577 -0.258097 20.5223 2.10961 22.89C4.52315 25.3025 7.80961 24.9869 12.5044 24.9869C17.3211 24.9869 18.9836 24.99 20.6867 24.3306C23.0023 23.4317 24.7502 21.3619 24.9211 17.6442C25.0294 15.3431 25.0232 9.64728 24.9211 7.3452C24.7148 2.95665 22.3596 0.295194 17.6544 0.0785278V0.0785278ZM21.295 21.2994C19.719 22.8754 17.5325 22.7348 12.4742 22.7348C7.26586 22.7348 5.17732 22.8119 3.65336 21.2837C1.89815 19.5369 2.21586 16.7317 2.21586 12.4785C2.21586 6.72332 1.62524 2.57853 7.40128 2.28269C8.72836 2.23582 9.11899 2.22019 12.4596 2.22019L12.5065 2.25144C18.0575 2.25144 22.4127 1.67019 22.6742 7.44519C22.7336 8.7629 22.7471 9.15874 22.7471 12.4942C22.7461 17.6421 22.844 19.7431 21.295 21.2994V21.2994Z" fill="#544334"/>
<path d="M19.1733 7.32604C20.0011 7.32604 20.6722 6.65493 20.6722 5.82708C20.6722 4.99923 20.0011 4.32812 19.1733 4.32812C18.3454 4.32812 17.6743 4.99923 17.6743 5.82708C17.6743 6.65493 18.3454 7.32604 19.1733 7.32604Z" fill="#544334"/>
</svg>
